<svg xmlns="http://www.w3.org/2000/svg" viewBox="0 0 6077.5 1610">
<g transform="translate(80,80)"><rect x="0" y="0" width="2770" height="1450" fill="#111111"/>
<g transform="translate(2919.50, 700.00) scale(1.0000, -1.0000)" fill="#111111">
<g transform="translate(0, 0)"><path d="M215 0V574H15V700H555V574H355V0Z"/></g>
<g transform="translate(570, 0)"><path d="M40 0V520H171V421Q184 477 224.0 506.5Q264 536 332 532V405H313Q255 405 215.0 368.0Q175 331 175 266V0Z"/></g>
<g transform="translate(907, 0)"><path d="M277 -13Q206 -13 147.5 23.5Q89 60 54.5 121.5Q20 183 20 258Q20 314 40.0 363.5Q60 413 95.0 450.5Q130 488 176.5 509.5Q223 531 277 531Q345 531 383.0 505.5Q421 480 442 438V520H576V0H445V85Q424 41 385.5 14.0Q347 -13 277 -13ZM299 109Q344 109 376.5 129.5Q409 150 427.0 184.0Q445 218 445 258Q445 299 427.0 333.0Q409 367 376.5 388.0Q344 409 299 409Q256 409 223.5 388.5Q191 368 173.0 334.0Q155 300 155 259Q155 220 173.0 185.5Q191 151 223.5 130.0Q256 109 299 109Z"/></g>
<g transform="translate(1523, 0)"><path d="M107 563Q73 563 49.5 586.5Q26 610 26 643Q26 675 49.5 698.5Q73 722 107 722Q142 722 165.0 698.5Q188 675 188 643Q188 609 165.0 586.0Q142 563 107 563ZM40 0V520H175V0Z"/></g>
<g transform="translate(1738, 0)"><path d="M40 0V730H175V0Z"/></g>
</g>
<g transform="translate(2919.50, 1450.00) scale(1.0000, -1.0000)" fill="#111111">
<g transform="translate(0, 0)"><path d="M50 0V700H190V418H480V700H620V0H480V292H190V0Z"/></g>
<g transform="translate(670, 0)"><path d="M233 -12Q177 -12 132.0 14.0Q87 40 61.0 88.5Q35 137 35 202V520H170V235Q170 168 197.0 137.0Q224 106 274 106Q317 106 349.5 137.0Q382 168 382 235V520H517V0H386V78Q367 33 330.5 10.5Q294 -12 233 -12Z"/></g>
<g transform="translate(1227, 0)"><path d="M218 -13Q87 -13 2 78L93 161Q150 97 215 97Q250 97 268.5 112.5Q287 128 287 151Q287 165 280.5 175.0Q274 185 253.5 194.0Q233 203 192 212Q122 229 88.0 254.0Q54 279 43.0 310.0Q32 341 32 374Q32 442 83.5 487.5Q135 533 226 533Q289 533 334.0 514.0Q379 495 419 443L321 368Q302 398 278.5 411.0Q255 424 229 424Q201 424 182.5 413.0Q164 402 164 378Q164 365 176.0 352.5Q188 340 234 328Q310 309 350.0 283.5Q390 258 405.0 226.0Q420 194 420 155Q420 107 393.5 69.0Q367 31 321.5 9.0Q276 -13 218 -13Z"/></g>
<g transform="translate(1660, 0)"><path d="M237 0Q160 0 119.0 38.0Q78 76 78 161V405H5V520H78V625L213 639V520H323V405H213V168Q213 120 255 120H311V0Z"/></g>
<g transform="translate(1988, 0)"><path d="M40 0V730H175V0Z"/></g>
<g transform="translate(2203, 0)"><path d="M289 -13Q209 -13 148.0 24.0Q87 61 53.5 122.5Q20 184 20 259Q20 334 55.0 396.5Q90 459 150.5 496.0Q211 533 289 533Q367 533 426.5 496.0Q486 459 519.5 396.5Q553 334 553 259Q553 248 552.0 236.0Q551 224 549 211H160Q171 165 204.5 136.0Q238 107 289 107Q333 107 365.5 127.0Q398 147 416 177L521 98Q490 49 428.0 18.0Q366 -13 289 -13ZM287 417Q239 417 205.0 388.0Q171 359 160 312H417Q406 355 371.5 386.0Q337 417 287 417Z"/></g>
<g transform="translate(2775, 0)"><path d="M112 -13Q73 -13 47.5 13.0Q22 39 22 75Q22 110 47.5 136.0Q73 162 112 162Q151 162 176.0 136.0Q201 110 201 75Q201 39 176.0 13.0Q151 -13 112 -13Z"/></g>
</g></g>
</svg>